<svg width="18" height="22" fill="none" xmlns="http://www.w3.org/2000/svg"><path d="M15.049 11.626c-.01-1.803.785-3.162 2.392-4.164-.898-1.322-2.258-2.05-4.05-2.19-1.697-.137-3.554 1.016-4.234 1.016-.718 0-2.361-.968-3.654-.968C2.835 5.362 0 7.504 0 11.862c0 1.287.23 2.617.688 3.987.612 1.803 2.822 6.221 5.127 6.15 1.205-.029 2.057-.878 3.625-.878 1.522 0 2.31.878 3.654.878 2.326-.034 4.324-4.05 4.906-5.86-3.118-1.509-2.951-4.42-2.951-4.513Zm-2.707-8.064C13.648 1.97 13.53.52 13.491 0c-1.154.069-2.488.806-3.247 1.713-.837.973-1.329 2.177-1.223 3.533 1.246.098 2.384-.56 3.321-1.684Z" fill="#313131"/></svg>