<svg width="18" height="18" fill="none" xmlns="http://www.w3.org/2000/svg"><path d="M17.476 7.363H9v3.48h4.844a4.137 4.137 0 0 1-1.796 2.716v2.258h2.908A8.775 8.775 0 0 0 17.64 9.2c0-.616-.055-1.23-.164-1.837Z" fill="#4285F4"/><path d="m14.956 15.817-2.908-2.258A5.41 5.41 0 0 1 9 14.42a5.364 5.364 0 0 1-5.036-3.71H.957v2.328A8.996 8.996 0 0 0 9 17.997c2.19.06 4.322-.72 5.956-2.18Z" fill="#34A853"/><path d="M3.682 9c.001-.583.097-1.161.282-1.713V4.958H.957a9.008 9.008 0 0 0 0 8.082l3.007-2.329a5.408 5.408 0 0 1-.282-1.712Z" fill="#FBBC05"/><path d="m12.44 4.923 2.581-2.58A8.65 8.65 0 0 0 9 0 8.998 8.998 0 0 0 .957 4.958l3.007 2.328A5.362 5.362 0 0 1 9 3.576a4.863 4.863 0 0 1 3.44 1.347Z" fill="#EA4335"/></svg>